<svg width="1600" height="960" viewBox="0 0 1600 960" fill="none" xmlns="http://www.w3.org/2000/svg">
  <rect width="1600" height="960" fill="#090909"/>
  <rect x="50" y="50" width="1500" height="860" stroke="#222222" stroke-width="2"/>
  <rect x="90" y="90" width="1420" height="70" fill="#121212" stroke="#2C2C2C"/>
  <circle cx="130" cy="125" r="8" fill="#F25623"/>
  <circle cx="160" cy="125" r="8" fill="#313131"/>
  <circle cx="190" cy="125" r="8" fill="#313131"/>
  <text x="1180" y="132" fill="#F25623" font-family="Arial, sans-serif" font-size="20" font-weight="700" letter-spacing="4">PREVIEW SLOT 01</text>
  <rect x="90" y="190" width="320" height="650" fill="#121212" stroke="#2C2C2C"/>
  <rect x="450" y="190" width="500" height="280" fill="#121212" stroke="#2C2C2C"/>
  <rect x="990" y="190" width="520" height="280" fill="#121212" stroke="#2C2C2C"/>
  <rect x="450" y="510" width="1060" height="330" fill="#121212" stroke="#2C2C2C"/>
  <text x="130" y="260" fill="#F6F1E8" font-family="Arial, sans-serif" font-size="40" font-weight="700">Cashier Dashboard</text>
  <text x="130" y="300" fill="#7C7C7C" font-family="Arial, sans-serif" font-size="18" letter-spacing="3">REPLACE WITH REAL SCREENSHOT</text>
  <rect x="130" y="360" width="240" height="52" rx="8" fill="#F25623" fill-opacity="0.18"/>
  <rect x="130" y="450" width="200" height="18" rx="4" fill="#232323"/>
  <rect x="130" y="486" width="160" height="18" rx="4" fill="#232323"/>
  <rect x="490" y="230" width="130" height="110" rx="12" fill="#1A1A1A" stroke="#323232"/>
  <rect x="650" y="230" width="130" height="110" rx="12" fill="#1A1A1A" stroke="#323232"/>
  <rect x="810" y="230" width="100" height="110" rx="12" fill="#1A1A1A" stroke="#323232"/>
  <rect x="1030" y="240" width="190" height="20" rx="4" fill="#232323"/>
  <rect x="1030" y="284" width="420" height="18" rx="4" fill="#232323"/>
  <rect x="1030" y="318" width="370" height="18" rx="4" fill="#232323"/>
  <rect x="490" y="560" width="980" height="18" rx="4" fill="#232323"/>
  <rect x="490" y="604" width="900" height="18" rx="4" fill="#232323"/>
  <rect x="490" y="648" width="940" height="18" rx="4" fill="#232323"/>
  <text x="90" y="900" fill="#F25623" font-family="Arial, sans-serif" font-size="16" font-weight="700" letter-spacing="4">NATO PC POS // DASHBOARD PREVIEW PLACEHOLDER</text>
</svg>
