<svg width="1600" height="960" viewBox="0 0 1600 960" fill="none" xmlns="http://www.w3.org/2000/svg">
  <rect width="1600" height="960" fill="#080808"/>
  <rect x="58" y="58" width="1484" height="844" stroke="#202020" stroke-width="2"/>
  <rect x="98" y="98" width="1404" height="96" fill="#121212" stroke="#2C2C2C"/>
  <text x="124" y="156" fill="#F6F1E8" font-family="Arial, sans-serif" font-size="34" font-weight="700">Checkout Flow</text>
  <text x="1188" y="156" fill="#F25623" font-family="Arial, sans-serif" font-size="18" font-weight="700" letter-spacing="4">PREVIEW SLOT 02</text>
  <rect x="98" y="232" width="880" height="610" fill="#111111" stroke="#2B2B2B"/>
  <rect x="1018" y="232" width="484" height="610" fill="#111111" stroke="#2B2B2B"/>
  <rect x="132" y="272" width="812" height="86" rx="12" fill="#181818" stroke="#303030"/>
  <rect x="132" y="392" width="812" height="74" rx="10" fill="#181818" stroke="#303030"/>
  <rect x="132" y="490" width="812" height="74" rx="10" fill="#181818" stroke="#303030"/>
  <rect x="132" y="588" width="812" height="74" rx="10" fill="#181818" stroke="#303030"/>
  <rect x="132" y="686" width="812" height="116" rx="12" fill="#F25623" fill-opacity="0.14" stroke="#F25623"/>
  <text x="1054" y="290" fill="#F6F1E8" font-family="Arial, sans-serif" font-size="28" font-weight="700">Payment Summary</text>
  <rect x="1054" y="336" width="198" height="18" rx="4" fill="#232323"/>
  <rect x="1054" y="382" width="396" height="18" rx="4" fill="#232323"/>
  <rect x="1054" y="428" width="356" height="18" rx="4" fill="#232323"/>
  <rect x="1054" y="488" width="412" height="140" rx="12" fill="#181818" stroke="#303030"/>
  <rect x="1054" y="658" width="412" height="58" rx="8" fill="#F25623" fill-opacity="0.18"/>
  <text x="98" y="894" fill="#F25623" font-family="Arial, sans-serif" font-size="16" font-weight="700" letter-spacing="4">TRANSACTION SCREEN PLACEHOLDER // DROP FINAL CAPTURE HERE</text>
</svg>
