<svg width="1600" height="960" viewBox="0 0 1600 960" fill="none" xmlns="http://www.w3.org/2000/svg">
  <rect width="1600" height="960" fill="#090909"/>
  <rect x="54" y="54" width="1492" height="852" stroke="#1F1F1F" stroke-width="2"/>
  <rect x="94" y="94" width="1412" height="88" fill="#111111" stroke="#2B2B2B"/>
  <text x="122" y="148" fill="#F6F1E8" font-family="Arial, sans-serif" font-size="34" font-weight="700">Inventory Monitor</text>
  <text x="1180" y="148" fill="#F25623" font-family="Arial, sans-serif" font-size="18" font-weight="700" letter-spacing="4">PREVIEW SLOT 03</text>
  <rect x="94" y="220" width="280" height="632" fill="#111111" stroke="#2B2B2B"/>
  <rect x="410" y="220" width="1096" height="632" fill="#111111" stroke="#2B2B2B"/>
  <rect x="130" y="270" width="208" height="44" rx="6" fill="#F25623" fill-opacity="0.18"/>
  <rect x="130" y="348" width="180" height="16" rx="4" fill="#232323"/>
  <rect x="130" y="382" width="150" height="16" rx="4" fill="#232323"/>
  <rect x="446" y="260" width="1024" height="72" rx="10" fill="#181818" stroke="#303030"/>
  <rect x="446" y="372" width="1024" height="74" rx="10" fill="#181818" stroke="#303030"/>
  <rect x="446" y="482" width="1024" height="74" rx="10" fill="#181818" stroke="#303030"/>
  <rect x="446" y="592" width="1024" height="74" rx="10" fill="#181818" stroke="#303030"/>
  <rect x="446" y="702" width="1024" height="110" rx="12" fill="#181818" stroke="#303030"/>
  <text x="94" y="896" fill="#F25623" font-family="Arial, sans-serif" font-size="16" font-weight="700" letter-spacing="4">CATALOG AND STOCK VIEW PLACEHOLDER FOR NATO PC POS</text>
</svg>
