<svg width="1600" height="960" viewBox="0 0 1600 960" fill="none" xmlns="http://www.w3.org/2000/svg">
  <rect width="1600" height="960" fill="#080808"/>
  <rect x="52" y="52" width="1496" height="856" stroke="#222222" stroke-width="2"/>
  <rect x="92" y="92" width="1416" height="84" fill="#101010" stroke="#2A2A2A"/>
  <text x="122" y="144" fill="#F6F1E8" font-family="Arial, sans-serif" font-size="34" font-weight="700">Sales Report</text>
  <text x="1188" y="144" fill="#F25623" font-family="Arial, sans-serif" font-size="18" font-weight="700" letter-spacing="4">PREVIEW SLOT 04</text>
  <rect x="92" y="214" width="452" height="268" fill="#111111" stroke="#2B2B2B"/>
  <rect x="578" y="214" width="452" height="268" fill="#111111" stroke="#2B2B2B"/>
  <rect x="1064" y="214" width="444" height="268" fill="#111111" stroke="#2B2B2B"/>
  <rect x="92" y="520" width="1416" height="332" fill="#111111" stroke="#2B2B2B"/>
  <rect x="128" y="268" width="380" height="22" rx="4" fill="#232323"/>
  <rect x="614" y="268" width="380" height="22" rx="4" fill="#232323"/>
  <rect x="1100" y="268" width="344" height="22" rx="4" fill="#232323"/>
  <rect x="128" y="612" width="1340" height="18" rx="4" fill="#232323"/>
  <rect x="128" y="656" width="1260" height="18" rx="4" fill="#232323"/>
  <rect x="128" y="700" width="1296" height="18" rx="4" fill="#232323"/>
  <rect x="128" y="744" width="1180" height="18" rx="4" fill="#232323"/>
  <rect x="128" y="788" width="420" height="26" rx="6" fill="#F25623" fill-opacity="0.18"/>
  <text x="92" y="894" fill="#F25623" font-family="Arial, sans-serif" font-size="16" font-weight="700" letter-spacing="4">REPORTING SCREEN PLACEHOLDER // READY FOR FINAL SALES CAPTURE</text>
</svg>
